<svg xmlns="http://www.w3.org/2000/svg"  width="54.084" fill="#0a1bb0" height="54.021" viewBox="0 0 54.084 54.021"><path d="M-9460.958-1921.088a5.607,5.607,0,0,1-5.6-5.6v-42.816a5.608,5.608,0,0,1,5.6-5.6h19.147a5.608,5.608,0,0,1,5.6,5.6v42.816a5.606,5.606,0,0,1-5.6,5.6Zm-3.479-5.6a3.483,3.483,0,0,0,3.479,3.48h19.147a3.483,3.483,0,0,0,3.478-3.48v-4.567h-26.1Zm0-42.816v36.125h26.1v-36.125a3.484,3.484,0,0,0-3.478-3.48h-19.147A3.485,3.485,0,0,0-9464.437-1969.507Zm9.622,42.1a3.434,3.434,0,0,1,3.43-3.43,3.435,3.435,0,0,1,3.431,3.43,3.435,3.435,0,0,1-3.431,3.43A3.434,3.434,0,0,1-9454.815-1927.409Zm2.122,0a1.309,1.309,0,0,0,1.308,1.308,1.309,1.309,0,0,0,1.307-1.308,1.309,1.309,0,0,0-1.307-1.308A1.309,1.309,0,0,0-9452.693-1927.409Zm2-9.972a1.062,1.062,0,0,1,0,2.122A1.062,1.062,0,0,1-9450.7-1937.381Zm-9.565,2.122a1.06,1.06,0,0,1-1.061-1.061,1.058,1.058,0,0,1,1.061-1.061h6.506a1.06,1.06,0,0,1,1.062,1.061,1.062,1.062,0,0,1-1.062,1.061Zm29.954-3.418a1.062,1.062,0,0,1,0-1.5,12.558,12.558,0,0,0,0-17.736,1.059,1.059,0,0,1,0-1.5,1.058,1.058,0,0,1,1.5,0,14.68,14.68,0,0,1,0,20.736,1.063,1.063,0,0,1-.752.312A1.058,1.058,0,0,1-9430.307-1938.677Zm-44,0a14.568,14.568,0,0,1-4.3-10.369,14.576,14.576,0,0,1,4.3-10.369,1.062,1.062,0,0,1,1.5,0,1.064,1.064,0,0,1,0,1.5,12.459,12.459,0,0,0-3.676,8.868,12.459,12.459,0,0,0,3.673,8.868,1.059,1.059,0,0,1,0,1.5,1.057,1.057,0,0,1-.749.312A1.055,1.055,0,0,1-9474.3-1938.677Zm40.173-3.825a1.059,1.059,0,0,1,0-1.5,7.094,7.094,0,0,0,2.089-5.045,7.085,7.085,0,0,0-2.089-5.043,1.062,1.062,0,0,1,0-1.5,1.062,1.062,0,0,1,1.5,0,9.2,9.2,0,0,1,2.71,6.544,9.194,9.194,0,0,1-2.71,6.544,1.057,1.057,0,0,1-.752.312A1.048,1.048,0,0,1-9434.132-1942.5Zm-36.349,0a9.2,9.2,0,0,1-2.711-6.544,9.2,9.2,0,0,1,2.711-6.544,1.06,1.06,0,0,1,1.5,0,1.059,1.059,0,0,1,0,1.5,7.085,7.085,0,0,0-2.089,5.043,7.094,7.094,0,0,0,2.089,5.045,1.059,1.059,0,0,1,0,1.5,1.058,1.058,0,0,1-.749.312A1.059,1.059,0,0,1-9470.48-1942.5Zm25.825-.4-2.339-2.141a12.987,12.987,0,0,1-4.392.747,11.946,11.946,0,0,1-6.727-1.934,6.22,6.22,0,0,1-3-5.088,6.221,6.221,0,0,1,3-5.091,11.946,11.946,0,0,1,6.727-1.934,11.947,11.947,0,0,1,6.728,1.934,6.221,6.221,0,0,1,3,5.091,5.693,5.693,0,0,1-1.619,3.9l.4,3.616a1.061,1.061,0,0,1-.575,1.061,1.043,1.043,0,0,1-.48.114A1.057,1.057,0,0,1-9444.655-1942.907Zm-1.395-4.153.75.685-.146-1.315a1.067,1.067,0,0,1,.328-.89,3.84,3.84,0,0,0,1.337-2.743,4.185,4.185,0,0,0-2.079-3.342,9.817,9.817,0,0,0-5.526-1.561,9.816,9.816,0,0,0-5.525,1.561,4.19,4.19,0,0,0-2.079,3.342,4.188,4.188,0,0,0,2.079,3.342,9.833,9.833,0,0,0,5.525,1.558,10.59,10.59,0,0,0,4.2-.83,1.059,1.059,0,0,1,.424-.088A1.059,1.059,0,0,1-9446.05-1947.06Zm-8.766-20.807a1.058,1.058,0,0,1-1.061-1.061,1.06,1.06,0,0,1,1.061-1.061h6.86a1.062,1.062,0,0,1,1.061,1.061,1.06,1.06,0,0,1-1.061,1.061Z" transform="translate(9478.602 1975.109)"></path></svg>