<svg xmlns="http://www.w3.org/2000/svg" viewBox="0 0 84 84.1"><g transform="translate(-1 -0.958)"><path style="fill:none;stroke:#000000;stroke-width:4;stroke-linecap:round;stroke-linejoin:round;stroke-miterlimit:10;" d="M70.7,55.4L58.4,67.7l-6.2-6.2"></path><circle style="fill:none;stroke:#000000;stroke-width:4;stroke-linecap:round;stroke-linejoin:round;stroke-miterlimit:10;" cx="61.5" cy="61.5" r="21.5"></circle><rect x="3" y="21.5" style="fill:none;stroke:#000000;stroke-width:4;stroke-linecap:round;stroke-linejoin:round;stroke-miterlimit:10;" width="67.7" height="15.4"></rect><rect x="24.5" y="21.5" style="fill:none;stroke:#000000;stroke-width:4;stroke-linecap:round;stroke-linejoin:round;stroke-miterlimit:10;" width="24.6" height="15.4"></rect><line style="fill:none;stroke:#000000;stroke-width:4;stroke-linecap:round;stroke-linejoin:round;stroke-miterlimit:10;" x1="27.6" y1="76.9" x2="27.6" y2="36.9"></line><path style="fill:none;stroke:#000000;stroke-width:4;stroke-linecap:round;stroke-linejoin:round;stroke-miterlimit:10;" d="M60.5,7.4C57.5,1.2,48.8,1.5,45.2,8l-8.3,13.5h14.8C58.7,21.2,63.6,13.5,60.5,7.4z"></path><path style="fill:none;stroke:#000000;stroke-width:4;stroke-linecap:round;stroke-linejoin:round;stroke-miterlimit:10;" d="M13.2,7.4C16.2,1.2,24.8,1.5,28.5,8l8.3,13.5H22.1C15,21.2,10.1,13.5,13.2,7.4z"></path><path style="fill:none;stroke:#000000;stroke-width:4;stroke-linecap:round;stroke-linejoin:round;stroke-miterlimit:10;" d="M46.4,76.9H6.1v-40h61.5v4"></path></g></svg>