<svg xmlns="http://www.w3.org/2000/svg" fill="#0a1bb0" width="53.109" height="52.853" viewBox="0 0 53.109 52.853"><path d="M-8923.371-1924.824h-10.756a6.833,6.833,0,0,1-6.744,5.782,6.836,6.836,0,0,1-6.744-5.782h-3.926a1.093,1.093,0,0,1-.148-.011,1.011,1.011,0,0,1-.144.011h-1.816a1.042,1.042,0,0,1-1.043-1.041,1.044,1.044,0,0,1,1.043-1.043h1.065v-17.221a5.341,5.341,0,0,1,5.333-5.335h1.15v-4.38a6.527,6.527,0,0,1-1.62-4.317,6.521,6.521,0,0,1,1.926-4.645,1.043,1.043,0,0,1,.737-.306,1.039,1.039,0,0,1,.734.306l3.174,3.173.836-.836a2.6,2.6,0,0,1,.58-2.782,2.6,2.6,0,0,1,3.674,0,2.58,2.58,0,0,1,.762,1.838,2.571,2.571,0,0,1-.762,1.836v0a2.6,2.6,0,0,1-1.836.757,2.637,2.637,0,0,1-.946-.178l-.836.836,3.171,3.173a1.039,1.039,0,0,1,0,1.474,6.529,6.529,0,0,1-4.643,1.924,6.542,6.542,0,0,1-2.868-.658v2.784h20.683a1.041,1.041,0,0,1,1.04,1.043,1.039,1.039,0,0,1-1.04,1.041h-23.916a3.255,3.255,0,0,0-3.25,3.252v11.441h30.418v-11.884a1.041,1.041,0,0,1,1.04-1.043h8.062a5.5,5.5,0,0,1,5.259,3.841l.142.445a.015.015,0,0,0,0,.011l2.128,6.67a.214.214,0,0,1,.009.034.265.265,0,0,1,.014.056.266.266,0,0,1,.009.038.43.43,0,0,1,.009.061.254.254,0,0,1,0,.031c0,.031,0,.063,0,.1v7.423h.775a1.043,1.043,0,0,1,1.041,1.043,1.041,1.041,0,0,1-1.041,1.041h-7.259a6.836,6.836,0,0,1-6.744,5.782A6.835,6.835,0,0,1-8923.371-1924.824Zm4.8-5.367c-.011.007-.022.011-.035.018a4.756,4.756,0,0,0-2.758,4.308,4.745,4.745,0,0,0,4.739,4.74,4.745,4.745,0,0,0,4.74-4.74,4.747,4.747,0,0,0-4.742-4.742A4.732,4.732,0,0,0-8918.573-1930.19Zm-27.037,4.326a4.745,4.745,0,0,0,4.739,4.74,4.745,4.745,0,0,0,4.742-4.74,4.747,4.747,0,0,0-4.742-4.742A4.747,4.747,0,0,0-8945.61-1925.864Zm35.728-1.043h4.4v-6.382h-7.24a1.04,1.04,0,0,1-1.041-1.041v-6.681a1.04,1.04,0,0,1,1.041-1.041h4.563a3.421,3.421,0,0,0-2.822-1.479H-8918v10.983a6.824,6.824,0,0,1,1.373-.139A6.834,6.834,0,0,1-8909.883-1926.907Zm-24.244,0h10.758a6.863,6.863,0,0,1,1.839-3.7h-14.439A6.805,6.805,0,0,1-8934.127-1926.907Zm-16.374,0h2.886a6.814,6.814,0,0,1,1.845-3.7h-4.73Zm38.82-8.466h5.814l-1.468-4.6h-4.347Zm-33.957-22.788a4.459,4.459,0,0,0,1.314,3.173,4.493,4.493,0,0,0,5.522.65l-3.086-3.086-3.088-3.088A4.466,4.466,0,0,0-8945.638-1958.161Zm7.378-3.618a.516.516,0,0,0,0,.728.517.517,0,0,0,.729,0,.508.508,0,0,0,.15-.364.5.5,0,0,0-.15-.364.511.511,0,0,0-.364-.151A.511.511,0,0,0-8938.26-1961.779Zm18.175,35.915a3.462,3.462,0,0,1,3.456-3.459,3.465,3.465,0,0,1,3.461,3.459,3.463,3.463,0,0,1-3.461,3.456A3.46,3.46,0,0,1-8920.085-1925.864Zm2.083,0a1.374,1.374,0,0,0,1.373,1.373,1.377,1.377,0,0,0,1.378-1.373,1.377,1.377,0,0,0-1.378-1.375A1.374,1.374,0,0,0-8918-1925.864Zm-26.325,0a3.462,3.462,0,0,1,3.456-3.459,3.463,3.463,0,0,1,3.459,3.459,3.461,3.461,0,0,1-3.459,3.456A3.46,3.46,0,0,1-8944.327-1925.864Zm2.081,0a1.376,1.376,0,0,0,1.375,1.373,1.375,1.375,0,0,0,1.376-1.373,1.376,1.376,0,0,0-1.376-1.375A1.377,1.377,0,0,0-8942.246-1925.864Zm-.8-10.153c-2.416-.944-3.744-2.322-3.744-3.877s1.328-2.935,3.744-3.877a22.213,22.213,0,0,1,7.82-1.276,22.223,22.223,0,0,1,7.821,1.276c2.413.942,3.744,2.319,3.744,3.877s-1.331,2.933-3.744,3.877a22.233,22.233,0,0,1-7.821,1.274A22.215,22.215,0,0,1-8943.044-1936.018Zm.757-5.814c-1.784.7-2.42,1.479-2.42,1.937s.636,1.238,2.42,1.937a20.119,20.119,0,0,0,7.063,1.133,20.135,20.135,0,0,0,7.063-1.133c1.784-.7,2.418-1.481,2.418-1.937s-.634-1.24-2.418-1.937a20.135,20.135,0,0,0-7.063-1.133A20.119,20.119,0,0,0-8942.287-1941.831Zm21.959-6.708a1.042,1.042,0,0,1,0,2.083A1.042,1.042,0,0,1-8920.328-1948.54Zm-9.169-12.875a8.406,8.406,0,0,0-8.4-8.4,1.041,1.041,0,0,1-1.04-1.043,1.039,1.039,0,0,1,1.04-1.04,10.492,10.492,0,0,1,10.481,10.479,1.042,1.042,0,0,1-1.043,1.041A1.039,1.039,0,0,1-8929.5-1961.415Zm-4.1,0a4.306,4.306,0,0,0-4.3-4.3,1.041,1.041,0,0,1-1.04-1.043,1.039,1.039,0,0,1,1.04-1.041,6.39,6.39,0,0,1,6.385,6.382,1.042,1.042,0,0,1-1.043,1.041A1.039,1.039,0,0,1-8933.594-1961.415Z" transform="translate(8954.692 1971.894)"></path></svg>