<svg xmlns="http://www.w3.org/2000/svg" xmlns:xlink="http://www.w3.org/1999/xlink" viewBox="0 0 84 72.6"><g style="enable-background:new;"><g transform="translate(-30.000000, -25.000000)"><g transform="translate(30.000000, 25.000000)"><g transform="translate(0.142558, 0.000000)"><path id="Fill-48" style="fill-rule:evenodd;clip-rule:evenodd;fill:#302E7B;" d="M27.1,48.3c-3.5,1.2-5.9,1.7-9.4,1.7c-7.5,0-13.3-4.3-13.3-13.4c0-8.6,6.1-13.8,14-13.8,c2.6,0,5.4,0.4,8.1,0.9l-0.6,9.9H21L20.7,27c-0.7-0.1-1.4-0.1-2.1-0.1c-4.9,0-8.2,3.5-8.2,9.1c0,6.2,3.3,9.4,8.9,9.4,c2.5,0,4.8-0.3,6.9-0.9L27.1,48.3z"></path><polygon id="Fill-50" style="fill-rule:evenodd;clip-rule:evenodd;fill:#302E7B;" points="41.8,29.2 41.8,32.5 30.5,32.5 30.5,29.2 33.5,28.6 33.5,4.3 30.5,3.7 30.5,0.5,38.4,0 38.8,0.5 38.8,28.6"></polygon><path id="Fill-51" style="fill-rule:evenodd;clip-rule:evenodd;fill:#302E7B;" d="M70.9,37.7v3.5h-7.2l-1.1-2.1c-2.2,1.6-4.9,2.6-8.1,2.6c-4.6,0-7.2-2.5-7.2-6.9l-0.1-14.8,l-3.2-0.7v-3.5h8.5l0.5,0.5v17.5c0,2.2,1.4,3.5,3.8,3.5c1.8,0,3.2-0.6,5.1-1.6V20.2l-3.2-0.8v-3.5h8.5l0.5,0.5v20.8L70.9,37.7z"></path><path id="Fill-53" style="fill-rule:evenodd;clip-rule:evenodd;fill:#302E7B;" d="M56,58c0,8.5-4.7,13.6-12.9,13.6c-2.9,0-6.1-0.5-9.3-1.7V40.6l-3.3-0.3v-3.5l8.6-0.5l0.5,0.5,v9.4c1.6-0.5,3.4-0.8,5.3-0.8C51.9,45.5,56,49.8,56,58 M50,58.2c0-6.2-2.2-9.1-6.4-9.1c-1.5,0-2.9,0.2-4.1,0.6v17.8,c1.3,0.3,2.5,0.5,3.8,0.5C47.8,68,50,65,50,58.2"></path><path id="Fill-55" style="fill-rule:evenodd;clip-rule:evenodd;fill:#302E7B;" d="M81.9,66.1l0.8,3.8c-3.5,1.2-5.9,1.7-9.3,1.7c-8.2,0-13.4-4.7-13.4-13.3,c0-7.9,4.9-13.6,12.3-13.6c6.6,0,10.4,3.9,10.4,10.4c0,1-0.1,2.4-0.3,3.6H66.2c0.3,5.7,3.3,8.5,8.8,8.5,C77.6,67.1,79.5,66.8,81.9,66.1 M66.3,54.9h10.8v-0.1c0-4.1-1.6-6.2-4.8-6.2C69.1,48.6,67,50.8,66.3,54.9"></path></g><g id="Group-3" transform="translate(27.736413, 43.684408)" style="enable-background:new;"><path id="Fill-57" style="fill-rule:evenodd;clip-rule:evenodd;fill:#302E7B;" d="M-22.6,28.9v-7.6h0.1c0.5,0,1.1,0,1.6,0c0.2,0,0.4,0,0.6,0.1c0.5,0.1,0.8,0.5,0.9,0.9,c0.1,0.4,0.2,0.8,0.2,1.2c0,0.7,0,1.4,0,2.2c0,0.6,0,1.2-0.1,1.8c0,0.2-0.1,0.4-0.2,0.6c-0.2,0.5-0.6,0.7-1.1,0.7,C-21.2,28.9-21.9,28.9-22.6,28.9C-22.5,28.9-22.5,28.9-22.6,28.9L-22.6,28.9z M-21.4,27.7c0.2,0,0.4,0,0.7,0,c0.2,0,0.3-0.1,0.3-0.3c0-0.1,0-0.1,0-0.2c0-0.5,0-1,0-1.4c0-0.7,0-1.5,0-2.2c0-0.2,0-0.5,0-0.7c0-0.1-0.1-0.3-0.2-0.3,c-0.2,0-0.5,0-0.7,0V27.7z"></path><path id="Fill-59" style="fill-rule:evenodd;clip-rule:evenodd;fill:#302E7B;" d="M-5.6,25.1c0,0.6,0,1.2-0.1,1.8c0,0.4-0.1,0.7-0.2,1.1c-0.2,0.5-0.5,0.8-1,0.9,c-0.3,0.1-0.7,0.1-1,0c-0.6-0.1-0.9-0.5-1.1-1c-0.1-0.5-0.2-0.9-0.2-1.4c0-0.8,0-1.6,0-2.4c0-0.5,0-1.1,0.2-1.6,c0.1-0.2,0.2-0.5,0.3-0.7c0.2-0.3,0.5-0.4,0.8-0.4c0.3-0.1,0.6,0,1,0c0.5,0.1,0.8,0.4,1,0.9c0.1,0.3,0.2,0.7,0.2,1.1,C-5.6,23.9-5.6,24.5-5.6,25.1 M-6.9,25.1C-6.9,25.1-6.9,25.1-6.9,25.1c0-0.5,0-1,0-1.5c0-0.2,0-0.5,0-0.7c0-0.3-0.2-0.4-0.5-0.4,c0,0-0.1,0-0.1,0c-0.2,0-0.4,0.1-0.4,0.4c0,0.2,0,0.4,0,0.6c0,1,0,1.9,0,2.9c0,0.3,0,0.6,0,0.9c0,0.2,0.1,0.3,0.3,0.3,c0.4,0,0.6-0.1,0.6-0.5C-6.9,26.5-6.9,25.8-6.9,25.1"></path><path id="Fill-61" style="fill-rule:evenodd;clip-rule:evenodd;fill:#302E7B;" d="M2.1,25.2c0,0.5,0,1.1-0.1,1.8c0,0.3-0.1,0.7-0.2,1c-0.2,0.6-0.6,0.9-1.2,0.9,c-0.3,0-0.6,0-0.9,0c-0.5-0.1-0.8-0.4-1-0.8c-0.1-0.4-0.2-0.8-0.2-1.2c0-0.9,0-1.8,0-2.7c0-0.6,0-1.1,0.2-1.7,c0.1-0.2,0.1-0.5,0.3-0.7c0.2-0.3,0.5-0.4,0.8-0.5c0.3-0.1,0.7-0.1,1,0c0.5,0.1,0.8,0.5,1,1C2,22.7,2,23.1,2,23.5,C2.1,24,2.1,24.6,2.1,25.2 M0.8,25.1C0.8,25.1,0.8,25.1,0.8,25.1c0-0.6,0-1.2,0-1.9c0-0.1,0-0.3,0-0.4c0-0.2-0.1-0.3-0.3-0.3,c-0.1,0-0.1,0-0.2,0c-0.3,0-0.4,0.1-0.4,0.4c0,0.3,0,0.6,0,0.8c0,1,0,2,0,3c0,0.2,0,0.4,0,0.6c0,0.2,0.1,0.3,0.3,0.3,c0.1,0,0.2,0,0.3,0c0.2,0,0.3-0.1,0.3-0.3c0-0.1,0-0.1,0-0.2C0.8,26.5,0.8,25.8,0.8,25.1"></path><path id="Fill-63" style="fill-rule:evenodd;clip-rule:evenodd;fill:#302E7B;" d="M-15,25.2c0,0.6,0,1.2-0.1,1.9c0,0.3-0.1,0.7-0.2,1c-0.2,0.5-0.6,0.8-1.1,0.9,c-0.3,0-0.6,0-1,0c-0.5-0.1-0.8-0.4-1-0.9c-0.1-0.3-0.2-0.7-0.2-1c-0.1-0.9-0.1-1.8-0.1-2.6c0-0.6,0-1.1,0.1-1.6,c0-0.2,0.1-0.5,0.2-0.7c0.2-0.3,0.4-0.5,0.8-0.6c0.4-0.1,0.8-0.1,1.2,0c0.5,0.1,0.8,0.4,1,0.9c0.1,0.4,0.2,0.8,0.2,1.2,C-15.1,24-15.1,24.5-15,25.2 M-17.4,25.1C-17.4,25.1-17.4,25.1-17.4,25.1c0,0.6,0,1.1,0,1.7c0,0.2,0,0.4,0,0.6,c0,0.2,0.1,0.3,0.3,0.3c0.4,0,0.6-0.1,0.6-0.5c0-0.3,0-0.5,0-0.8c0-0.8,0-1.5,0-2.3c0-0.4,0-0.7,0-1.1c0-0.4-0.2-0.6-0.6-0.5,c-0.2,0-0.3,0.1-0.3,0.3c0,0.1,0,0.1,0,0.2C-17.4,23.7-17.4,24.4-17.4,25.1"></path><path id="Fill-65" style="fill-rule:evenodd;clip-rule:evenodd;fill:#302E7B;" d="M-15.3,10.3c0.6,3.1,1,6.1,1.4,9.2c0,0-0.1,0-0.1,0c-0.4,0-0.9,0-1.3,0c-0.1,0-0.1,0-0.1-0.1,c0-0.4-0.1-0.7-0.1-1.1h-1.3c-0.1,0.4-0.1,0.8-0.2,1.2h-1.5c0-0.2,0.1-0.4,0.1-0.7c0.1-0.9,0.2-1.9,0.4-2.8,c0.2-1.1,0.3-2.2,0.5-3.2c0.1-0.8,0.3-1.6,0.4-2.4c0-0.1,0-0.1,0.1-0.1C-16.6,10.3-16,10.3-15.3,10.3,C-15.4,10.3-15.4,10.3-15.3,10.3L-15.3,10.3z M-15.9,16.8c-0.2-1.4-0.2-2.7-0.3-4.1h-0.3c-0.1,1.4-0.1,2.7-0.3,4.1H-15.9z"></path><path id="Fill-67" style="fill-rule:evenodd;clip-rule:evenodd;fill:#302E7B;" d="M-2.7,19.5c0.4-3.1,0.8-6.2,1.4-9.3h0.1c0.5,0,1.1,0,1.6,0c0.1,0,0.1,0,0.2,0.1,c0.2,1.5,0.5,3,0.7,4.6c0.2,1.3,0.4,2.7,0.5,4c0,0.2,0,0.3,0.1,0.5H0.4c-0.1-0.4-0.1-0.8-0.2-1.2h-1.3c-0.1,0.4-0.1,0.8-0.2,1.2,H-2.7z M-0.9,16.8H0c-0.1-1.4-0.2-2.7-0.3-4.1h-0.1h-0.1C-0.7,14.1-0.7,15.4-0.9,16.8L-0.9,16.8z"></path><path id="Fill-69" style="fill-rule:evenodd;clip-rule:evenodd;fill:#302E7B;" d="M-19.2,12.1c-0.5,0.2-1,0.3-1.4,0.5c0-0.1,0-0.3-0.1-0.4c0-0.2-0.2-0.3-0.4-0.4,c-0.5-0.1-0.7,0.1-0.8,0.6c0,0.4,0,0.8,0,1.2c0,1.3,0,2.6,0,3.8c0,0.1,0,0.2,0,0.3c0.1,0.2,0.2,0.4,0.4,0.4c0.1,0,0.2,0,0.3,0,c0.3,0,0.4-0.2,0.4-0.5c0-0.3,0-0.7,0-1c0-0.3,0-0.5,0-0.8h-0.5v-1.5h2v5.4c-0.2,0-0.4,0-0.5,0c0,0-0.1,0-0.1-0.1,c-0.2-0.2-0.4-0.4-0.6-0.6c-0.2,0.2-0.4,0.4-0.6,0.6c0,0-0.1,0.1-0.2,0.1c-0.3,0-0.6,0-0.8-0.1c-0.6-0.1-1-0.5-1.2-1.1,c-0.1-0.5-0.2-0.9-0.2-1.4c0-1,0-2.1,0-3.1c0-0.7,0-1.3,0.2-2c0.1-0.3,0.2-0.7,0.4-1c0.3-0.3,0.6-0.5,1-0.6,c0.4-0.1,0.8-0.1,1.2,0c0.7,0.1,1.2,0.6,1.3,1.3C-19.2,11.8-19.2,11.9-19.2,12.1"></path><path id="Fill-71" style="fill-rule:evenodd;clip-rule:evenodd;fill:#302E7B;" d="M-2.8,28.9C-2.8,28.9-2.8,28.9-2.8,28.9c-0.5,0-1,0-1.5,0c-0.1,0-0.1,0-0.1-0.1,c-0.2-1.3-0.4-2.5-0.6-3.8C-5.1,24-5.2,23-5.4,22c0-0.2,0-0.4-0.1-0.6c0,0,0.1,0,0.1,0c0.4,0,0.7,0,1.1,0c0.1,0,0.1,0,0.1,0.1,c0.1,0.7,0.2,1.4,0.3,2.1c0.1,0.6,0.1,1.2,0.2,1.8c0,0.5,0.1,1.1,0.1,1.6c0,0.1,0.1,0.1,0.2,0.1c0.1-1.9,0.3-3.8,0.6-5.6h1.2,C-2,23.9-2.3,26.4-2.8,28.9"></path><path id="Fill-73" style="fill-rule:evenodd;clip-rule:evenodd;fill:#302E7B;" d="M-11.8,28.9H-13v-7.6c0,0,0,0,0.1,0c0.6,0,1.1,0,1.7,0c0.2,0,0.4,0,0.5,0.1,c0.5,0.1,0.7,0.4,0.9,0.9c0.1,0.4,0.2,0.8,0.2,1.1c0,0.5,0,1.1,0,1.6c0,0.2-0.1,0.5-0.1,0.7c-0.2,0.6-0.6,0.9-1.2,1,c-0.2,0-0.5,0-0.7,0c0,0-0.1,0-0.1,0V28.9z M-11.8,25.6c0.1,0,0.3,0,0.4,0c0,0,0.1,0,0.1,0c0.2,0,0.3-0.1,0.4-0.3,c0-0.1,0-0.1,0-0.2c0-0.5,0-1,0-1.5c0-0.2,0-0.4,0-0.6c0-0.2-0.1-0.3-0.3-0.3c-0.2,0-0.4,0-0.6,0V25.6z"></path><polygon id="Fill-76" style="fill-rule:evenodd;clip-rule:evenodd;fill:#302E7B;" points="-8,18 -6.2,18 -6.2,19.5 -9.5,19.5 -9.5,10.3 -6.6,10.3 -6.6,11.8 -8,11.8 -8,14.2,-6.6,14.2 -6.6,15.7 -8,15.7"></polygon><path id="Fill-77" style="fill-rule:evenodd;clip-rule:evenodd;fill:#302E7B;" d="M-13.6,10.3h3.5c0,0.2,0,0.5,0,0.7c-0.1,1.3-0.5,2.4-0.8,3.6c-0.3,0.8-0.5,1.6-0.8,2.5,c-0.1,0.3-0.1,0.6-0.2,0.9h1.8v1.5h-3.5c0,0,0-0.1,0-0.1c0-1,0.2-1.9,0.4-2.8c0.3-1,0.6-1.9,0.9-2.9c0.2-0.6,0.3-1.1,0.4-1.7,c0,0,0-0.1,0-0.1h-1.7V10.3z"></path><polygon id="Fill-79" style="fill-rule:evenodd;clip-rule:evenodd;fill:#302E7B;" points="-5,11.8 -6.1,11.8 -6.1,10.3 -2.5,10.3 -2.5,11.8 -3.5,11.8 -3.5,19.5 -5,19.5"></polygon></g></g></g></g></svg>




