<svg width="87" height="87" viewBox="0 0 87 87" fill="none" xmlns="http://www.w3.org/2000/svg">
<path d="M43.5 86.4C67.3035 86.4 86.6 67.1035 86.6 43.3C86.6 19.4965 67.3035 0.199997 43.5 0.199997C19.6965 0.199997 0.399994 19.4965 0.399994 43.3C0.399994 67.1035 19.6965 86.4 43.5 86.4Z" fill="black"/>
<path d="M44.6 38.5V48.5H47.9C47.9 54.6 47.8 59.7 47.6 60.9C47.3 62.8 46.9 64.4 43.7 64.4C40.5 64.4 40 62.9 39.8 60.9C39.4 58 39.4 28.6 39.8 25.7C40.1 23.8 40.5 22.2 43.7 22.2C46.9 22.2 47.4 23.7 47.6 25.7C47.6 26 47.7 26.7 47.7 27.6L57.4 24.5C57.2 23.2 57.1 22 56.9 21.1C55.3 12.7 47.6 12.4 43.9 12.4C30.3 12.4 29.3 21.8 29.3 43.6C29.3 65.1 30.3 74.5 43.9 74.5H45.3L49.6 70.2L53.9 74.5H57.6V38.5H44.6Z" fill="white"/>
</svg>
