<svg class="logo-pino" xmlns="http://www.w3.org/2000/svg" viewBox="0 0 156 80"><rect fill="none" width="156" height="80"></rect><path fill="#1d1d1b" d="M29.66,20.9h-10.6c-2.13,0-3.85,1.73-3.85,3.85h0v30.83c0,2.13,1.73,3.85,3.85,3.85,2.13,0,3.85-1.72,3.85-3.85v-5.78h6.74c7.98-.09,14.37-6.64,14.28-14.62-.09-7.85-6.43-14.19-14.28-14.28h0Zm0,21.19h-6.74v-13.49h6.74c3.72,.05,6.71,3.1,6.66,6.83-.04,3.66-3,6.62-6.66,6.66h0Zm66.48-6.75v10.6c0,2.13-1.73,3.85-3.85,3.85s-3.85-1.73-3.85-3.85v-10.6c.05-3.72-2.94-6.78-6.66-6.83-3.72-.05-6.78,2.94-6.83,6.66,0,.05,0,.11,0,.16v10.6c0,2.13-1.73,3.85-3.85,3.85s-3.85-1.73-3.85-3.85v-10.6c0-7.98,6.47-14.45,14.45-14.45s14.45,6.47,14.45,14.45h0Zm22.16-14.45c-7.98,0-14.45,6.47-14.45,14.45s6.47,14.45,14.45,14.45,14.45-6.47,14.45-14.45h0c0-7.98-6.47-14.44-14.45-14.45Zm0,21.19c-3.73,0-6.74-3.02-6.74-6.75s3.02-6.74,6.75-6.74,6.74,3.02,6.74,6.75c0,3.72-3.02,6.74-6.75,6.74ZM59.53,24.75v21.19c0,2.13-1.73,3.85-3.85,3.85s-3.85-1.73-3.85-3.85V24.75c0-2.13,1.73-3.85,3.85-3.85s3.85,1.73,3.85,3.85Zm80.93-8.67c0,2.66-2.16,4.82-4.82,4.82-2.66,0-4.82-2.16-4.82-4.82,0-2.66,2.16-4.82,4.82-4.82h0c2.66,0,4.82,2.16,4.82,4.82h0ZM40.16,61.72c.03-.34,.33-.59,.67-.56,.69,0,.83,.68,.83,1.26,0,1.02-.33,1.38-.85,1.38-.23,0-.45-.05-.65-.15v-1.92Zm-.86-1.86v4.27c.46,.21,.97,.32,1.48,.32,1.2,0,1.8-.7,1.8-2.15,0-1.16-.59-1.8-1.52-1.8-.33,0-.65,.1-.9,.31v-1.76h-1.31v.61h.26c.13,.02,.19,.07,.19,.19m11.94,1.52c0-.16-.04-.22-.19-.23l-.31-.02v-.6h1.26v.48c.25-.38,.68-.6,1.13-.59,.42-.04,.83,.2,.99,.59,.25-.38,.68-.6,1.13-.59,.7,0,1.11,.42,1.11,1.29v2.46l.42,.02v.59h-1.77v-.57l.24-.02c.13-.01,.21-.06,.21-.24v-2.06c0-.45-.04-.8-.51-.8-.38-.02-.71,.28-.72,.66,0,.04,0,.07,0,.11v1.96l.41,.02v.59h-1.75v-.57l.24-.02c.14-.01,.22-.06,.22-.24v-1.7c0-.45-.04-.8-.51-.8-.37-.02-.7,.26-.72,.63,0,.04,0,.08,0,.12v1.97l.4,.02v.59h-1.75v-.57l.24-.02c.14-.01,.22-.06,.22-.24h0v-2.23m-14.9,4.28c0,.39-.3,.72-.7,.73-.02,0-.04,0-.06,0-.69,0-.77-.96-.77-1.47,0-.75,.32-1.24,.93-1.24,.2,0,.4,.03,.59,.09v1.89h0Zm.86-2.35c-.44-.17-.9-.27-1.37-.27-.98-.09-1.85,.64-1.94,1.62-.01,.12,0,.24,0,.35,0,.85,.37,2.03,1.46,2.03,.37,.01,.74-.14,.99-.42v.87c0,.62-.18,1.09-.86,1.09-.18,0-.36-.02-.53-.08-.12-.03-.19-.15-.17-.27v-.36l-.71,.06v1.03c.45,.17,.92,.25,1.4,.24,.82,.12,1.58-.44,1.71-1.26,.02-.11,.02-.23,.01-.34,.02-.27,.01-1.01,.01-1.27v-3.05h0Zm2.29,5.22c-.71,0-.81-.78-.81-1.51s.24-1.29,.83-1.29,.8,.54,.8,1.42c0,.81-.23,1.38-.81,1.38m.06-3.49c-.76,0-1.77,.46-1.77,2.08,0,1.42,.65,2.09,1.65,2.09s1.78-.69,1.78-2.19c0-1.8-1.11-1.98-1.66-1.98m5.51,3.29c0,.16,.04,.2,.19,.22l.26,.02v.59h-1.2v-.48c-.28,.38-.73,.59-1.2,.58-.74,0-1.15-.41-1.15-1.29v-2.06c0-.16-.06-.2-.19-.21h-.24v-.62h1.31v2.7c0,.45,.08,.8,.55,.8,.4,.04,.76-.26,.8-.66,0-.03,0-.05,0-.08v-1.92c0-.16-.04-.22-.19-.22h-.24v-.62h1.31v3.26m2.12-2.62c.19-.41,.6-.67,1.05-.67,.25,0,.49,.05,.71,.16v1.11l-.69,.05v-.34c0-.09-.01-.15-.08-.19-.06-.03-.13-.04-.2-.04-.38,0-.68,.32-.68,.7,0,.02,0,.03,0,.05v1.96l.65,.03v.59h-1.99v-.57l.25-.02c.14-.01,.22-.06,.22-.24v-2.3c0-.16-.04-.22-.19-.22l-.31-.02v-.6h1.25v.56m7.79,2.79l.42,.02v.59h-1.78v-.57l.24-.02c.13-.01,.21-.06,.22-.24v-1.85c0-.45-.04-.8-.51-.8-.38-.02-.71,.28-.72,.66,0,.04,0,.07,0,.11v2.1l.41,.02v.59h-1.75v-.57l.24-.02c.14-.01,.22-.06,.22-.24v-1.85c0-.45-.04-.8-.51-.8-.38-.02-.7,.26-.72,.64,0,.04,0,.08,0,.11v2.12l.4,.02v.59h-1.75v-.57l.24-.02c.14-.01,.22-.06,.22-.24h0v-2.37c0-.16-.04-.22-.19-.23l-.31-.02v-.6h1.26v.48c.25-.38,.68-.6,1.13-.59,.42-.04,.83,.2,.99,.59,.25-.38,.68-.6,1.13-.59,.7,0,1.12,.42,1.12,1.29v2.25h0Zm2.66-2.73c.22-.03,.42,.13,.44,.35,0,.02,0,.04,0,.06,0,.57-.78,.7-1.33,.71,.02-.55,.29-1.12,.88-1.12m.06,2.62c-.46,.04-.87-.3-.91-.76,0-.04,0-.08,0-.11,.88,0,2.12-.2,2.12-1.35,0-.66-.48-1.03-1.21-1.03-1.03,0-1.85,.84-1.85,1.87,0,.07,0,.13,.01,.2,0,1.1,.49,1.88,1.75,1.88,.47,0,.93-.14,1.31-.42l-.28-.6c-.27,.2-.6,.32-.94,.33m4.07,.43c-.28,.17-.61,.26-.94,.26-1.16,0-1.15-.71-1.15-1.23v-3.55h-.79l.08-.54c.5-.06,.93-.4,1.12-.87h.48v.78h.99l-.08,.62h-.92v3.52c0,.45,.18,.59,.48,.59,.18,0,.35-.06,.51-.16l.22,.57h0Zm-17.13-7.67h4.02c.71,0,.81,.74,.81,1.43s-.24,1.22-.83,1.22h-4.01c-.71,0-.81-.74-.81-1.43s.24-1.22,.83-1.22m-.08,3.31h4.03c.96,.03,1.76-.72,1.79-1.68,0-.1,0-.2-.02-.29,0-1.35-.65-1.98-1.65-1.98h-4.03c-.96-.03-1.76,.72-1.79,1.67,0,.1,0,.2,.02,.3,0,1.35,.65,1.98,1.65,1.98m77.75-3.33h1.09v3.79c0,1.27-1.03,2.29-2.29,2.29h-1.46c-1.27,0-2.29-1.03-2.29-2.29v-3.79h1.09v3.79c0,.67,.54,1.21,1.21,1.21h1.46c.67,0,1.21-.54,1.21-1.2h0v-3.79Zm8.13,2.67c.2,.2,.31,.47,.31,.75v.71c0,1.08-.88,1.96-1.96,1.96h-3.96v-1.09h3.96c.48,0,.87-.39,.87-.87v-.68h-3.21c-.96,0-1.74-.78-1.74-1.74h0v-.52c0-.68,.55-1.23,1.23-1.23h4.63v1.09h-4.63c-.08,0-.14,.06-.14,.14v.51c0,.36,.29,.66,.66,.66h3.24c.28,0,.55,.11,.75,.31m-26.59-2.67v2.48h3.87v-2.48h1.08v6.04h-1.08v-2.18c0-.17-.13-.3-.3-.3h-3.27c-.17,0-.3,.13-.3,.3h0v2.18h-1.09v-6.04h1.09Zm10.33-.04c.67,0,1.23,.49,1.32,1.15l.65,4.93h-1.1l-.63-4.79c-.02-.12-.12-.21-.24-.21h-2.11c-.12,0-.22,.09-.24,.21l-.63,4.79h-1.1l.65-4.93c.09-.66,.65-1.15,1.32-1.15h2.11m-16.94,3.53l-.13-.62c-.04,.2-.07,.4-.12,.62h.25Zm.17,.76l-.12-.51h-.35l-.11,.51h-.25l.42-2.08h.23l.43,2.08h-.25Zm-9.83,.69c.17,0,.3,.16,.29,.33,0,.16-.14,.29-.29,.29h-8.51c-.23,0-.42-.19-.42-.43h0v-.03l.03-.04,5.1-6.51h-2.9c-.17,0-.32-.14-.33-.31s.12-.32,.29-.33c.01,0,.02,0,.04,0h3.42c.24,0,.43,.19,.43,.43v.03l-.04,.04-5.02,6.41s-.02,.05,0,.08c.01,.02,.04,.04,.06,.04h7.85m-3.22,2.56c.17,0,.3,.16,.29,.33,0,.16-.14,.29-.29,.29h-3.52c-.24,0-.43-.19-.43-.43v-.03l.04-.04,5.09-6.59s.02-.05,0-.08c-.01-.02-.04-.04-.06-.04h-7.25c-.17,0-.32-.12-.33-.29s.12-.32,.29-.33c.01,0,.02,0,.04,0h7.9c.23,0,.42,.19,.43,.42v.03l-.04,.04-5.17,6.7h3.01m-10.53-6.31h.66v2.51l-.03,.03c-.3,.28-.65,.49-1.04,.63-.41,.14-.84,.21-1.28,.21-.61,0-1.2-.14-1.74-.43-.51-.27-.93-.68-1.22-1.18-.59-1.05-.59-2.33,0-3.38,.29-.5,.71-.91,1.22-1.18,.54-.29,1.14-.43,1.74-.43,.39,0,.78,.06,1.16,.17,.36,.13,.69,.33,.98,.58,.15,.1,.19,.29,.09,.44-.1,.15-.29,.19-.44,.09-.01,0-.02-.02-.04-.03-.23-.2-.5-.36-.78-.47-.31-.1-.64-.15-.97-.14-.49,0-.97,.11-1.41,.35-.41,.22-.74,.55-.98,.95-.24,.41-.36,.88-.35,1.36-.01,.96,.5,1.84,1.34,2.31,.43,.24,.91,.36,1.4,.35,.6,.02,1.19-.16,1.68-.52v-2.22h0Zm4.59,3.79l-3.46-.03,1.71-3.83,1.75,3.86Zm-1.45-4.73h-.6l-3.18,6.99c-.07,.17,.02,.36,.19,.43,.16,.06,.34,0,.42-.16l.88-1.96,4.01,.03,.58,1.27c.07,.17,.27,.25,.44,.17,.17-.07,.25-.27,.17-.44h0l-2.91-6.34h0Zm-9.82,1.56c-.16,0-.29-.13-.29-.29h0v-.05c0-.16,.13-.29,.29-.29h7.33v.62h-7.33m19.54,2.04v-1.21c.03-.26,.25-.46,.52-.44,.25,0,.46,.19,.47,.44h0v.14h-.25v-.14c0-.12-.11-.2-.22-.2-.15,0-.27,.09-.27,.2v1.21c0,.11,.13,.2,.27,.2,.12,0,.21-.08,.22-.2v-.15h.25v.15c0,.25-.21,.45-.47,.44h0c-.26,.02-.49-.18-.52-.44m2.5,.02v-1.25c0-.11-.13-.18-.27-.18s-.27,.08-.27,.18v1.25c0,.1,.13,.18,.27,.18s.27-.08,.27-.18m.24,0c-.06,.28-.33,.47-.62,.41-.21-.04-.37-.2-.41-.41v-1.25c.06-.28,.33-.47,.62-.41,.21,.04,.37,.2,.41,.41v1.25Zm1,.4h-.24v-2.08h.26l.45,1.33v-1.33h.24v2.08h-.22l-.49-1.37v1.37h0Zm2.34-2.08v.24h-.56v.7h.49v.24h-.49v.65h.56v.24h-.8v-2.07h.8Zm.71,1.65v-1.21c.03-.26,.25-.46,.52-.44,.25,0,.46,.19,.47,.44h0v.14h-.25v-.14c0-.12-.11-.2-.22-.2-.15,0-.27,.09-.27,.2v1.21c0,.11,.13,.2,.27,.2,.12,0,.21-.08,.22-.2v-.15h.25v.15c0,.25-.21,.45-.47,.44h0c-.26,.02-.49-.18-.52-.44m2.24,.42h-.24v-1.83h-.33v-.24h.9v.24h-.33v1.83h0Z"></path></svg>