<svg xmlns="http://www.w3.org/2000/svg" fill="#0a1bb0" width="52.065" height="49.95" viewBox="0 0 52.065 49.95"><path d="M-9196.721-1913.282h-27.252a1.028,1.028,0,0,1-1.027-1.028,25.865,25.865,0,0,1,4.778-15.035,25.987,25.987,0,0,1,10.68-8.761,14.725,14.725,0,0,1-4.214-10.337,14.807,14.807,0,0,1,14.789-14.789,14.805,14.805,0,0,1,14.787,14.789,14.732,14.732,0,0,1-4.213,10.337,25.98,25.98,0,0,1,10.682,8.761,25.863,25.863,0,0,1,4.776,15.035,1.027,1.027,0,0,1-1.028,1.028Zm3.859-14.454a6.06,6.06,0,0,1-2.831,5.154v7.244h20.679a24.075,24.075,0,0,0-15.632-21.464,1.029,1.029,0,0,1-.655-.8,1.027,1.027,0,0,1,.363-.965,12.685,12.685,0,0,0,4.7-9.879,12.746,12.746,0,0,0-12.731-12.733,12.745,12.745,0,0,0-12.73,12.733,12.692,12.692,0,0,0,4.7,9.879,1.027,1.027,0,0,1,.366.965,1.031,1.031,0,0,1-.657.8,24.083,24.083,0,0,0-15.633,21.464h20.68v-4.278h-9.374a1.029,1.029,0,0,1-1.028-1.028,1.029,1.029,0,0,1,1.028-1.028h9.374v-.91a6.063,6.063,0,0,1-2.829-5.154,6.111,6.111,0,0,1,6.1-6.1A6.111,6.111,0,0,1-9192.861-1927.735Zm-7.323,12.4h2.436v-6.418a6.061,6.061,0,0,1-1.218.125,6.076,6.076,0,0,1-1.218-.125Zm-2.829-12.4a4.023,4.023,0,0,0,2.256,3.63h0a3.978,3.978,0,0,0,1.789.417,3.979,3.979,0,0,0,1.79-.417,4.02,4.02,0,0,0,2.257-3.63,4.051,4.051,0,0,0-4.047-4.047A4.051,4.051,0,0,0-9203.014-1927.735Zm-11.67,6.063a1.029,1.029,0,0,1,0,2.056A1.028,1.028,0,0,1-9214.684-1921.672Zm16.384-20.276a3.929,3.929,0,0,1-.667-.333,3.742,3.742,0,0,1-.669.333c-.509.2-1.694.463-6.054.465a2.34,2.34,0,0,1-2.2-1.507,2.342,2.342,0,0,1,.611-2.593c3.593-3.269,4.464-3.6,4.79-3.732a3.951,3.951,0,0,1,3.519.331,3.961,3.961,0,0,1,3.52-.333v0c.326.125,1.194.463,4.79,3.732a2.339,2.339,0,0,1,.613,2.593,2.344,2.344,0,0,1-2.2,1.507C-9196.6-1941.485-9197.785-1941.749-9198.3-1941.948Zm.072-2.362a1.856,1.856,0,0,0,.669.445c.141.053,1.054.324,5.315.324a.279.279,0,0,0,.28-.192.279.279,0,0,0-.076-.329c-3.151-2.864-4.01-3.283-4.151-3.336a1.894,1.894,0,0,0-2.04.444,1.025,1.025,0,0,1-.736.31,1.025,1.025,0,0,1-.735-.31,1.89,1.89,0,0,0-2.04-.444c-.139.053-1,.47-4.148,3.336a.282.282,0,0,0-.079.331.279.279,0,0,0,.28.19c4.262,0,5.174-.271,5.313-.324a1.866,1.866,0,0,0,.674-.445,1.02,1.02,0,0,1,.735-.31A1.032,1.032,0,0,1-9198.228-1944.31Z" transform="translate(9225 1963.232)"></path></svg>