<svg xmlns="http://www.w3.org/2000/svg" fill="#0a1bb0" width="65.772" height="28"  viewBox="0 0 65.772 28"><path d="M-8668.457-1819.5a56.364,56.364,0,0,1-9.491-6.523,1.293,1.293,0,0,1-.427-.96,1.285,1.285,0,0,1,.427-.958,56.063,56.063,0,0,1,9.491-6.523c5.35-2.975,13.679-6.519,22.97-6.519s17.617,3.544,22.969,6.519a56.092,56.092,0,0,1,9.489,6.523,1.285,1.285,0,0,1,.427.958,1.293,1.293,0,0,1-.427.96,56.394,56.394,0,0,1-9.489,6.523c-5.352,2.973-13.68,6.517-22.969,6.517S-8663.107-1816.524-8668.457-1819.5Zm11.548-7.484a11.436,11.436,0,0,0,11.422,11.421,11.434,11.434,0,0,0,11.419-11.421,11.434,11.434,0,0,0-11.419-11.421A11.436,11.436,0,0,0-8656.909-1826.981Zm25.42,0a13.952,13.952,0,0,1-4.354,10.136,56.861,56.861,0,0,0,19.931-10.136,58.833,58.833,0,0,0-7.919-5.26,52.081,52.081,0,0,0-12-4.872A13.962,13.962,0,0,1-8631.489-1826.981Zm-35.656-5.26a58.754,58.754,0,0,0-7.921,5.26,58.752,58.752,0,0,0,7.921,5.26,52.081,52.081,0,0,0,12,4.872,13.961,13.961,0,0,1-4.347-10.132,13.952,13.952,0,0,1,4.35-10.132A51.956,51.956,0,0,0-8667.146-1832.241Zm14.649,5.26a7.014,7.014,0,0,1,7.007-7.007,1.291,1.291,0,0,1,1.291,1.289,1.291,1.291,0,0,1-1.291,1.289,4.433,4.433,0,0,0-4.429,4.428,4.434,4.434,0,0,0,4.429,4.43,4.435,4.435,0,0,0,4.43-4.43,1.289,1.289,0,0,1,1.289-1.289,1.289,1.289,0,0,1,1.29,1.289,7.018,7.018,0,0,1-7.009,7.009A7.016,7.016,0,0,1-8652.5-1826.981Zm10.746-5.2a1.29,1.29,0,0,1,0,2.579A1.29,1.29,0,0,1-8641.75-1832.182Z" transform="translate(8678.375 1840.981)"></path></svg>